<?xml version="1.0" encoding="UTF-8"?>
<svg id="Livello_1" data-name="Livello 1" xmlns="http://www.w3.org/2000/svg" viewBox="0 0 1080 1080">
  <defs>
    <style>
      .cls-1 {
        fill: none;
        stroke: #000;
        stroke-linecap: round;
        stroke-linejoin: round;
        stroke-width: 2.89px;
      }

      .cls-2, .cls-3 {
        stroke-width: 0px;
      }

      .cls-3 {
        fill: #fff;
      }
    </style>
  </defs>
  <path class="cls-3" d="m303.87,224.53c-1.79,1.92-2.34,2.22-2.4,2.61-4.49,26.76-10.17,53.4-13.11,80.33-4.9,44.83-9.48,89.79-11.48,134.82-1.81,40.74-.16,81.65.31,122.48.15,12.71.72,25.5,2.37,38.09,1.46,11.09,5.45,21.84,7.01,32.93,2.83,20.2,3.64,40.73,7.18,60.78,5.99,33.97,13.42,67.7,20.31,101.51,2.51,12.3,9.05,22.2,19.11,29.55,11.05,8.08,22,16.42,33.7,23.47,19.72,11.88,39.98,22.84,60.04,34.15,5.07,2.86,9.72,2.37,14.7-1,7.54-5.11,15.53-9.54,23.33-14.25,10.71-6.47,22.23-10.13,34.83-10.22,19-.13,38-.54,56.99-.37,11.51.11,23.09.41,34.49,1.85,17,2.14,30.28,13.02,44.51,21.28,7.53,4.37,13.66,4.6,21.3.81,33.7-16.72,65.13-36.94,94.7-60.12,6.69-5.25,10.74-12.09,12.4-20.46,2.1-10.56,4.52-21.07,6.6-31.63,5.79-29.41,11.98-58.76,17.03-88.29,3.27-19.13,4.62-38.58,7.16-57.84,2.03-15.38,5.37-30.62,6.66-46.05,1.61-19.15,2.17-38.41,2.34-57.64.22-24.98.12-49.99-.84-74.95-.69-17.93-3.24-35.79-4.56-53.71-1.33-17.97-1.29-36.09-3.41-53.95-3.54-29.79-8.22-59.44-12.63-89.12-1.21-8.11-3.18-16.1-4.81-24.15-.78.03-1.56.05-2.34.08-.78,7.05-1.99,14.08-2.27,21.15-1.35,33.87-2.76,67.74-3.53,101.63-.56,24.71-2.22,49.67.33,74.12,3.07,29.46,9.41,58.66,15.6,87.7,4.28,20.04,4.63,38.67-6.7,56.82-4.21,6.74-5.72,15.16-8.49,22.8-3.58,9.88-6.22,20.24-10.96,29.52-19.75,38.63-40.18,76.92-60.19,115.42-1.58,3.04-2.34,6.73-2.62,10.19-1.5,18.87,4.25,36.59,9.13,54.42,1.42,5.18,1.78,10.15-2.98,13.78-13.88,10.6-27.87,21.05-41.91,31.62-16.02-12.23-31.31-24.26-47.04-35.68-4.29-3.11-9.73-5.32-14.95-6.33-9.17-1.76-18.59-2.16-27.88-3.36-3.28-.43-7.12-.67-9.6-2.5-11.83-8.76-25.78-7.12-37.04-2.99-11.1,4.08-21.94,6.3-33.29,7.22-12.43,1.01-23.06,5.22-32.53,13.49-10.67,9.32-22.1,17.75-33,26.8-3.26,2.71-5.52,3.22-9.21.41-11.46-8.75-23.3-16.98-34.95-25.48-8.25-6.02-9.25-9.13-6.61-19.1,2.59-9.75,5.43-19.44,7.64-29.28,3-13.31,1.81-26.23-4.68-38.51-13.68-25.87-27.4-51.72-40.82-77.73-11.62-22.53-24.82-44.35-29.94-69.79-1.44-7.12-5.84-13.6-8.38-20.56-2.53-6.91-6.38-14.11-6.19-21.08.41-14.74,2.25-29.57,4.98-44.08,7.57-40.27,17.1-80.07,14.29-121.75-2.85-42.18-3.34-84.52-5.07-126.77-.3-7.33-1.61-14.61-2.59-23.09Zm10.03,6.55c3.04-2.63,6.13-5.18,9.09-7.88,6.04-5.5,11.84-11.27,18.04-16.58,24.2-20.74,52.63-34.19,81.41-47.05,17.14-7.65,18.18-7.16,23.02,11.18,9.68,36.61,19.44,73.2,29.18,109.79,3.17,11.92,7.07,15.07,19.98,15.21,24.77.27,49.53.44,74.3.37,7.18-.02,14.35-1.38,21.53-1.46,7.67-.09,11.25-4.32,13.06-10.99,2.56-9.48,5.17-18.94,7.65-28.44,7.74-29.69,15.42-59.39,23.13-89.08,2.78-10.69,6.76-13.58,15.48-9.83,39.69,17.09,77.85,36.67,108.05,68.73,2.07,2.2,4.49,4.06,6.71,6.05,6.62-6.65,7.5-11.88,2.13-18.09-4.99-5.77-10.57-11.22-16.6-15.89-76.08-58.83-162.87-77.98-257.09-68.2-42.31,4.39-81.82,18.27-118.94,38.82-21.25,11.77-41.9,24.53-59.19,41.95-6.94,6.99-7.4,13.51-.93,21.41Zm378.96,263.1c21.54.56,46.28-6.17,59.97-15.43,2.11-1.43,3.97-5.55,3.54-8.01-1.36-7.77-4.01-15.31-5.87-23.01-.95-3.95-3.15-4.84-6.83-4.25-16.82,2.67-33.61,5.6-50.5,7.74-30.23,3.83-60.45,8.95-90.81,10.27-40.56,1.77-81.26.57-121.89.33-11.99-.07-24.09-.38-35.94-2.02-36.15-5.01-72.2-10.67-108.27-16.21-3.79-.58-5.94.28-6.98,4.08-2.1,7.64-4.78,15.15-6.35,22.89-.46,2.27,1.24,6.37,3.2,7.52,17.19,10.11,35.64,17.73,55.81,16.34,26.06-1.8,52.01-5.4,77.96-8.58,7.5-.92,13.68-4.18,15.46-12.82.35-1.69,3.49-4.01,5.36-4.02,39.19-.2,78.39-.18,117.58.1,2.16.02,5.76,2.38,6.2,4.25,1.94,8.17,7.46,11.51,14.92,12.39,26.21,3.11,52.44,6.04,73.43,8.44Zm-39.79,263c-4.79-7.23-10.03-13.38-13.3-20.44-5.92-12.79-15.84-16.68-29-16.62-48.56.24-97.13.23-145.69.07-11.28-.04-19.07,4.32-24.34,14.48-4.04,7.77-9.33,14.89-14.25,22.58-12.96-8.32-24.88-15.97-36.79-23.62-.81.78-1.61,1.56-2.42,2.35,2.71,3.8,4.82,8.3,8.25,11.28,8.69,7.57,18.02,14.4,26.98,21.66,3.56,2.88,6.25,2.57,9.11-1.02,5.09-6.39,10.77-12.32,15.6-18.89,6.73-9.17,15.93-12.98,26.75-13.01,44.47-.1,88.94-.03,133.41.15,9.11.04,16.51,3.78,22.32,11.2,6.92,8.84,14.49,17.17,22.07,26.07,11.03-8.87,21.79-17.28,32.24-26.06,3.81-3.2,7.3-7.11,6.49-14.25-12.95,8.33-24.61,15.83-37.44,24.08Zm-265.59-31.72c.61-56.28-31.92-95.45-68.14-132.72,18.59,46.37,41.81,90.34,68.14,132.72Zm304.66.07c15.27-18.95,62.73-112.92,67.27-133.03-34.34,38.36-68.55,75.98-67.27,133.03Z"/>
  <path class="cls-2" d="m303.87,224.53c.98,8.47,2.29,15.76,2.59,23.09,1.73,42.26,2.22,84.6,5.07,126.77,2.82,41.68-6.72,81.48-14.29,121.75-2.73,14.51-4.57,29.35-4.98,44.08-.19,6.98,3.66,14.17,6.19,21.08,2.54,6.96,6.94,13.44,8.38,20.56,5.13,25.44,18.32,47.26,29.94,69.79,13.42,26.01,27.14,51.85,40.82,77.73,6.49,12.28,7.67,25.2,4.68,38.51-2.22,9.83-5.05,19.53-7.64,29.28-2.65,9.97-1.64,13.08,6.61,19.1,11.65,8.5,23.49,16.73,34.95,25.48,3.69,2.82,5.95,2.3,9.21-.41,10.9-9.05,22.34-17.48,33-26.8,9.47-8.27,20.1-12.48,32.53-13.49,11.35-.92,22.19-3.14,33.29-7.22,11.27-4.14,25.21-5.77,37.04,2.99,2.47,1.83,6.32,2.07,9.6,2.5,9.29,1.21,18.71,1.6,27.88,3.36,5.22,1,10.66,3.21,14.95,6.33,15.73,11.42,31.03,23.45,47.04,35.68,14.03-10.57,28.03-21.03,41.91-31.62,4.76-3.63,4.39-8.6,2.98-13.78-4.88-17.83-10.63-35.55-9.13-54.42.27-3.46,1.03-7.15,2.62-10.19,20.01-38.5,40.44-76.78,60.19-115.42,4.74-9.28,7.38-19.65,10.96-29.52,2.77-7.64,4.28-16.06,8.49-22.8,11.33-18.15,10.98-36.78,6.7-56.82-6.2-29.04-12.53-58.24-15.6-87.7-2.55-24.46-.89-49.41-.33-74.12.77-33.89,2.18-67.76,3.53-101.63.28-7.07,1.49-14.1,2.27-21.15.78-.03,1.56-.05,2.34-.08,1.62,8.05,3.6,16.04,4.81,24.15,4.42,29.68,9.1,59.33,12.63,89.12,2.12,17.87,2.09,35.98,3.41,53.95,1.32,17.92,3.87,35.77,4.56,53.71.96,24.96,1.06,49.97.84,74.95-.17,19.22-.73,38.49-2.34,57.64-1.29,15.43-4.63,30.67-6.66,46.05-2.54,19.26-3.89,38.71-7.16,57.84-5.04,29.54-11.24,58.88-17.03,88.29-2.08,10.57-4.5,21.07-6.6,31.63-1.66,8.37-5.71,15.22-12.4,20.46-29.57,23.18-61,43.39-94.7,60.12-7.63,3.79-13.77,3.56-21.3-.81-14.23-8.26-27.5-19.14-44.51-21.28-11.4-1.43-22.98-1.74-34.49-1.85-18.99-.17-37.99.24-56.99.37-12.59.09-24.12,3.75-34.83,10.22-7.8,4.71-15.79,9.15-23.33,14.25-4.97,3.37-9.63,3.85-14.7,1-20.06-11.31-40.32-22.27-60.04-34.15-11.7-7.05-22.65-15.38-33.7-23.47-10.06-7.35-16.6-17.25-19.11-29.55-6.9-33.81-14.32-67.54-20.31-101.51-3.54-20.06-4.35-40.58-7.18-60.78-1.55-11.09-5.55-21.84-7.01-32.93-1.66-12.59-2.23-25.38-2.37-38.09-.47-40.83-2.12-81.74-.31-122.48,2-45.03,6.58-89.99,11.48-134.82,2.94-26.93,8.62-53.57,13.11-80.33.06-.39.61-.69,2.4-2.61Z"/>
  <path class="cls-2" d="m313.9,231.08c-6.47-7.9-6.01-14.42.93-21.41,17.3-17.41,37.94-30.18,59.19-41.95,37.12-20.55,76.63-34.43,118.94-38.82,94.22-9.78,181.01,9.37,257.09,68.2,6.03,4.67,11.61,10.11,16.6,15.89,5.37,6.21,4.49,11.44-2.13,18.09-2.22-1.99-4.65-3.85-6.71-6.05-30.2-32.06-68.36-51.64-108.05-68.73-8.72-3.76-12.7-.87-15.48,9.83-7.71,29.69-15.39,59.4-23.13,89.08-2.48,9.5-5.08,18.97-7.65,28.44-1.81,6.67-5.39,10.91-13.06,10.99-7.18.08-14.35,1.44-21.53,1.46-24.77.07-49.53-.1-74.3-.37-12.91-.14-16.81-3.28-19.98-15.21-9.74-36.59-19.5-73.18-29.18-109.79-4.85-18.33-5.89-18.83-23.02-11.18-28.78,12.85-57.21,26.31-81.41,47.05-6.2,5.31-12,11.08-18.04,16.58-2.96,2.7-6.05,5.25-9.09,7.88Z"/>
  <path class="cls-2" d="m692.86,494.18c-20.99-2.4-47.22-5.33-73.43-8.44-7.47-.89-12.98-4.22-14.92-12.39-.44-1.86-4.04-4.23-6.2-4.25-39.19-.29-78.39-.31-117.58-.1-1.86,0-5.01,2.32-5.36,4.02-1.79,8.64-7.97,11.9-15.46,12.82-25.95,3.18-51.9,6.79-77.96,8.58-20.17,1.39-38.62-6.23-55.81-16.34-1.95-1.15-3.66-5.25-3.2-7.52,1.58-7.74,4.25-15.25,6.35-22.89,1.04-3.8,3.19-4.66,6.98-4.08,36.07,5.55,72.13,11.21,108.27,16.21,11.85,1.64,23.95,1.95,35.94,2.02,40.64.24,81.33,1.44,121.89-.33,30.36-1.32,60.58-6.44,90.81-10.27,16.89-2.14,33.68-5.07,50.5-7.74,3.67-.58,5.87.3,6.83,4.25,1.86,7.7,4.5,15.24,5.87,23.01.43,2.46-1.43,6.58-3.54,8.01-13.7,9.26-38.43,15.99-59.97,15.43Z"/>
  <path class="cls-2" d="m653.07,757.18c12.83-8.25,24.49-15.75,37.44-24.08.81,7.14-2.68,11.05-6.49,14.25-10.45,8.78-21.22,17.19-32.24,26.06-7.58-8.89-15.15-17.23-22.07-26.07-5.81-7.42-13.21-11.16-22.32-11.2-44.47-.18-88.94-.25-133.41-.15-10.82.03-20.02,3.83-26.75,13.01-4.83,6.57-10.51,12.51-15.6,18.89-2.86,3.59-5.56,3.9-9.11,1.02-8.96-7.26-18.29-14.09-26.98-21.66-3.43-2.98-5.54-7.48-8.25-11.28.81-.78,1.61-1.56,2.42-2.35,11.91,7.65,23.83,15.3,36.79,23.62,4.91-7.69,10.21-14.8,14.25-22.58,5.27-10.15,13.06-14.51,24.34-14.48,48.56.15,97.13.16,145.69-.07,13.16-.06,23.08,3.83,29,16.62,3.27,7.06,8.51,13.21,13.3,20.44Z"/>
  <path class="cls-2" d="m387.48,725.46c-26.33-42.37-49.55-86.35-68.14-132.72,36.22,37.27,68.75,76.44,68.14,132.72Z"/>
  <path class="cls-2" d="m692.14,725.53c-1.28-57.05,32.93-94.67,67.27-133.03-4.55,20.11-52,114.08-67.27,133.03Z"/>
  <path class="cls-1" d="m777.17,225.9v17.32"/>
  <path class="cls-1" d="m604,465.82c-42.33-.12-84.66-.31-127-.21-2.65,0-5.29,2.25-7.94,3.45"/>
  <path class="cls-1" d="m303.1,225.9c-.24,6.25-.48,12.51-.72,18.76"/>
  <path class="cls-1" d="m759.13,592.46c-3.61,6.25-7.22,12.51-10.82,18.76"/>
  <path class="cls-1" d="m695.64,712.96c-.96,4.09-1.92,8.18-2.89,12.27"/>
  <path class="cls-1" d="m319.7,593.18c3.13,4.81,6.25,9.62,9.38,14.43"/>
  <path class="cls-1" d="m652.34,764.19v8.66"/>
  <path class="cls-1" d="m333.77,446.7c1.08,1.92,2.16,3.85,3.25,5.77"/>
</svg>