<?xml version="1.0" encoding="UTF-8"?>
<svg id="Livello_1" data-name="Livello 1" xmlns="http://www.w3.org/2000/svg" viewBox="0 0 1080 1080">
  <defs>
    <style>
      .cls-1 {
        fill: #fff;
        stroke-width: 0px;
      }
    </style>
  </defs>
  <path class="cls-1" d="m485.83,533.85l214.84,360.47h-134.02l-202.67-351.62h-45.95l-48.13,391.95,579.82.91-13.31,105.07H130.04L253.25,39.36h167.77c54.63,0,98.01,4.99,130.12,14.96,31.73,9.24,59.44,26.22,83.05,50.94,44.66,45.78,67.01,104.84,67.01,177.19,0,132.52-71.79,216.33-215.4,251.41h.03Zm-120.71-376.54l-33.23,274.66h58.15c42.82,0,74.75-4.07,95.81-12.2,22.52-8.12,41.35-21.96,56.48-41.53,20.67-27.3,31-59.44,31-96.36,0-43.2-12.45-74.75-37.38-94.69-24.93-19.94-64.15-29.91-117.67-29.91h-53.17v.03Z"/>
  <path class="cls-1" d="m911.24,436l-65.03,528.09h-123.89l65.03-528.09h123.89Zm38.69-251.15c0,17.94-6.55,33.45-19.61,46.54-13.06,13.08-28.77,19.61-47.09,19.61s-34.19-6.73-47.65-20.19c-13.08-14.2-19.61-30.47-19.61-48.76s6.35-33.81,19.05-46.54c13.08-13.08,28.59-19.61,46.54-19.61s34.19,6.91,47.65,20.75c13.82,13.46,20.75,29.53,20.75,48.21h-.03Z"/>
</svg>