<?xml version="1.0" encoding="UTF-8"?>
<svg id="Livello_1" data-name="Livello 1" xmlns="http://www.w3.org/2000/svg" viewBox="0 0 1080 1080">
  <defs>
    <style>
      .cls-1, .cls-2 {
        stroke-width: 0px;
      }

      .cls-2 {
        fill: #fff;
      }
    </style>
  </defs>
  <path class="cls-2" d="m143.61,837.52h10.04c93.23,0,186.47.21,279.7-.08,47.87-.15,95.94,1.34,143.56-2.42,69.16-5.47,123.08-42.02,162.94-96.62,32.81-44.94,41.55-97.4,30.44-152.41-17.3-85.67-86.81-172.09-191.35-176.66-46.71-2.04-89.95,8.68-124.49,41.69-71.06,67.89-52.75,168.69,7.87,221.38,33.51,29.12,78.26,34.1,115.28,14.78,49.65-25.91,58.83-97.14,17.19-133.3-9-7.81-19.28-7.3-27.09,1.34-7.22,7.99-6.38,16.55,2.44,24.94,14.59,13.88,18.21,34.72,9.34,53.65-12.99,27.72-46.8,37.33-76.27,20.71-52.88-29.81-80.4-104.56-35.7-162.6,33.82-43.93,81.69-53.81,133.47-43.86,54.71,10.52,91.53,45.32,116.07,94.17,42.47,84.53,19.48,172.45-59.11,225.06-45.53,30.48-96.11,38.48-149.33,30.65-84.26-12.4-144.54-59.91-185.16-132.71-50.7-90.87-41.61-190.03,25.02-267.62,48.76-56.78,112.84-85.56,187.08-90.56,94.05-6.33,175.72,24.13,246.1,86.16,2.07,1.83,4.39,3.36,6.84,5.22,49.42-42.45,98.29-84.43,147.91-127.05-8.6-9.91-16.66-19.2-25.15-28.99-42.04,36.03-83.38,71.47-123.77,106.08-17.87-11.28-34.01-22.81-51.32-32.18-105.73-57.24-214.4-63-323.75-12.74-72.45,33.29-121.69,89.45-145.35,166.45-4.94,16.09-6.53,33.26-11.97,49.14-23.55,68.79-47.96,137.28-72.05,205.89-12.98,36.97-25.92,73.95-39.43,112.5Z"/>
  <path class="cls-1" d="m143.61,837.52c13.51-38.55,26.45-75.53,39.43-112.5,24.08-68.61,48.5-137.1,72.05-205.89,5.44-15.88,7.02-33.05,11.97-49.14,23.65-77,72.9-133.15,145.35-166.45,109.36-50.26,218.03-44.49,323.75,12.74,17.31,9.37,33.46,20.9,51.32,32.18,40.39-34.61,81.73-70.05,123.77-106.08,8.49,9.79,16.55,19.08,25.15,28.99-49.62,42.62-98.49,84.6-147.91,127.05-2.45-1.86-4.77-3.4-6.84-5.22-70.38-62.03-152.05-92.49-246.1-86.16-74.25,5-138.32,33.78-187.08,90.56-66.63,77.59-75.71,176.75-25.02,267.62,40.62,72.8,100.9,120.31,185.16,132.71,53.22,7.83,103.8-.17,149.33-30.65,78.59-52.62,101.58-140.53,59.11-225.06-24.54-48.85-61.35-83.65-116.07-94.17-51.78-9.96-99.65-.07-133.47,43.86-44.69,58.04-17.17,132.78,35.7,162.6,29.47,16.61,63.28,7.01,76.27-20.71,8.87-18.93,5.24-39.77-9.34-53.65-8.82-8.39-9.66-16.95-2.44-24.94,7.81-8.65,18.09-9.16,27.09-1.34,41.64,36.17,32.46,107.39-17.19,133.3-37.02,19.32-81.78,14.34-115.28-14.78-60.62-52.69-78.93-153.49-7.87-221.38,34.54-33.01,77.78-43.73,124.49-41.69,104.54,4.58,174.05,91,191.35,176.66,11.11,55.01,2.37,107.47-30.44,152.41-39.86,54.6-93.78,91.16-162.94,96.62-47.62,3.76-95.69,2.27-143.56,2.42-93.23.29-186.47.08-279.7.08h-10.04Zm259.34-37.05c-70.76-45.29-116.89-107.42-140-189.74-22.25,64.73-43.66,127.03-65.21,189.74h205.21Z"/>
  <path class="cls-2" d="m402.95,800.47h-205.21c21.55-62.72,42.96-125.01,65.21-189.74,23.11,82.32,69.24,144.46,140,189.74Z"/>
</svg>