<?xml version="1.0" encoding="UTF-8"?>
<svg id="Livello_1" data-name="Livello 1" xmlns="http://www.w3.org/2000/svg" viewBox="0 0 1080 1080">
  <defs>
    <style>
      .cls-1 {
        fill: #fff;
        stroke-width: 0px;
      }
    </style>
  </defs>
  <path class="cls-1" d="m511.17,534.98l84.9,142.45h-52.96l-80.09-138.95h-18.16l-19.02,154.89,229.13.36-5.26,41.52h-279.14l48.69-395.68h66.3c21.59,0,38.73,1.97,51.42,5.91,12.54,3.65,23.49,10.36,32.82,20.13,17.65,18.09,26.48,41.43,26.48,70.02,0,52.37-28.37,85.49-85.12,99.35Zm-47.7-148.8l-13.13,108.54h22.98c16.92,0,29.54-1.61,37.86-4.82,8.9-3.21,16.34-8.68,22.32-16.41,8.17-10.79,12.25-23.49,12.25-38.08,0-17.07-4.92-29.54-14.77-37.42-9.85-7.88-25.35-11.82-46.5-11.82h-21.01Z"/>
  <path class="cls-1" d="m679.28,496.31l-25.7,208.69h-48.96l25.7-208.69h48.96Zm15.29-99.25c0,7.09-2.59,13.22-7.75,18.39s-11.37,7.75-18.61,7.75-13.51-2.66-18.83-7.98c-5.17-5.61-7.75-12.04-7.75-19.27s2.51-13.36,7.53-18.39c5.17-5.17,11.3-7.75,18.39-7.75s13.51,2.73,18.83,8.2c5.46,5.32,8.2,11.67,8.2,19.05Z"/>
</svg>